<mxfile host="app.diagrams.net" modified="2024-03-14T03:22:58.084Z" agent="Mozilla/5.0 (Windows NT 10.0; Win64; x64) AppleWebKit/537.36 (KHTML, like Gecko) Chrome/122.0.0.0 Safari/537.36" etag="vD0HuYzHHo-btZ_TCxPg" version="23.1.7" type="device">
  <diagram name="第 1 页" id="sdm0tE0BnIYUUASsN850">
    <mxGraphModel dx="3217" dy="2399" grid="1" gridSize="10" guides="1" tooltips="1" connect="1" arrows="1" fold="1" page="1" pageScale="1" pageWidth="827" pageHeight="1169" math="0" shadow="0">
      <root>
        <mxCell id="0" />
        <mxCell id="1" parent="0" />
        <mxCell id="5FcoHmArx-ItL01axp11-1" value="spdata" style="whiteSpace=wrap;html=1;align=center;" vertex="1" parent="1">
          <mxGeometry x="80" y="300" width="100" height="40" as="geometry" />
        </mxCell>
        <mxCell id="5FcoHmArx-ItL01axp11-24" style="edgeStyle=orthogonalEdgeStyle;rounded=0;orthogonalLoop=1;jettySize=auto;html=1;entryX=1;entryY=0.5;entryDx=0;entryDy=0;" edge="1" parent="1" source="5FcoHmArx-ItL01axp11-2" target="5FcoHmArx-ItL01axp11-1">
          <mxGeometry relative="1" as="geometry" />
        </mxCell>
        <mxCell id="5FcoHmArx-ItL01axp11-25" style="edgeStyle=orthogonalEdgeStyle;rounded=0;orthogonalLoop=1;jettySize=auto;html=1;entryX=0;entryY=0.5;entryDx=0;entryDy=0;" edge="1" parent="1" source="5FcoHmArx-ItL01axp11-2" target="5FcoHmArx-ItL01axp11-4">
          <mxGeometry relative="1" as="geometry" />
        </mxCell>
        <mxCell id="5FcoHmArx-ItL01axp11-2" value="Relationship" style="shape=rhombus;perimeter=rhombusPerimeter;whiteSpace=wrap;html=1;align=center;" vertex="1" parent="1">
          <mxGeometry x="220" y="290" width="120" height="60" as="geometry" />
        </mxCell>
        <mxCell id="5FcoHmArx-ItL01axp11-4" value="basicbi" style="whiteSpace=wrap;html=1;align=center;" vertex="1" parent="1">
          <mxGeometry x="400" y="180" width="100" height="40" as="geometry" />
        </mxCell>
        <mxCell id="5FcoHmArx-ItL01axp11-5" value="punbi" style="whiteSpace=wrap;html=1;align=center;" vertex="1" parent="1">
          <mxGeometry x="390" y="420" width="100" height="40" as="geometry" />
        </mxCell>
        <mxCell id="5FcoHmArx-ItL01axp11-6" value="subsibi" style="whiteSpace=wrap;html=1;align=center;" vertex="1" parent="1">
          <mxGeometry x="390" y="540" width="100" height="40" as="geometry" />
        </mxCell>
        <mxCell id="5FcoHmArx-ItL01axp11-9" value="release" style="whiteSpace=wrap;html=1;align=center;" vertex="1" parent="1">
          <mxGeometry x="880" y="340" width="100" height="40" as="geometry" />
        </mxCell>
        <mxCell id="5FcoHmArx-ItL01axp11-10" value="relbatch" style="whiteSpace=wrap;html=1;align=center;" vertex="1" parent="1">
          <mxGeometry x="1250" y="340" width="100" height="40" as="geometry" />
        </mxCell>
        <mxCell id="5FcoHmArx-ItL01axp11-11" value="paybi" style="whiteSpace=wrap;html=1;align=center;" vertex="1" parent="1">
          <mxGeometry x="1000" y="-100" width="100" height="40" as="geometry" />
        </mxCell>
        <mxCell id="5FcoHmArx-ItL01axp11-12" value="payba" style="whiteSpace=wrap;html=1;align=center;" vertex="1" parent="1">
          <mxGeometry x="1000" y="80" width="100" height="40" as="geometry" />
        </mxCell>
        <mxCell id="5FcoHmArx-ItL01axp11-13" value="esti_data" style="whiteSpace=wrap;html=1;align=center;" vertex="1" parent="1">
          <mxGeometry x="460" y="960" width="100" height="40" as="geometry" />
        </mxCell>
        <mxCell id="5FcoHmArx-ItL01axp11-14" value="esti_distr" style="whiteSpace=wrap;html=1;align=center;" vertex="1" parent="1">
          <mxGeometry x="460" y="1040" width="100" height="40" as="geometry" />
        </mxCell>
        <mxCell id="5FcoHmArx-ItL01axp11-15" value="esti_price" style="whiteSpace=wrap;html=1;align=center;" vertex="1" parent="1">
          <mxGeometry x="-150" y="670" width="100" height="40" as="geometry" />
        </mxCell>
        <mxCell id="5FcoHmArx-ItL01axp11-16" value="esti_price_batch" style="whiteSpace=wrap;html=1;align=center;" vertex="1" parent="1">
          <mxGeometry x="180" y="670" width="100" height="40" as="geometry" />
        </mxCell>
        <mxCell id="5FcoHmArx-ItL01axp11-18" value="esti_task" style="whiteSpace=wrap;html=1;align=center;" vertex="1" parent="1">
          <mxGeometry x="100" y="1000" width="100" height="40" as="geometry" />
        </mxCell>
        <mxCell id="5FcoHmArx-ItL01axp11-19" value="basicbi_v2" style="whiteSpace=wrap;html=1;align=center;" vertex="1" parent="1">
          <mxGeometry x="710" y="180" width="100" height="40" as="geometry" />
        </mxCell>
        <mxCell id="5FcoHmArx-ItL01axp11-22" value="spdata" style="whiteSpace=wrap;html=1;align=center;" vertex="1" parent="1">
          <mxGeometry x="-220" y="1000" width="100" height="40" as="geometry" />
        </mxCell>
        <mxCell id="5FcoHmArx-ItL01axp11-23" value="Relationship" style="shape=rhombus;perimeter=rhombusPerimeter;whiteSpace=wrap;html=1;align=center;" vertex="1" parent="1">
          <mxGeometry x="-60" y="990" width="120" height="60" as="geometry" />
        </mxCell>
        <mxCell id="5FcoHmArx-ItL01axp11-26" value="spdata" style="whiteSpace=wrap;html=1;align=center;" vertex="1" parent="1">
          <mxGeometry x="80" y="420" width="100" height="40" as="geometry" />
        </mxCell>
        <mxCell id="5FcoHmArx-ItL01axp11-27" style="edgeStyle=orthogonalEdgeStyle;rounded=0;orthogonalLoop=1;jettySize=auto;html=1;entryX=1;entryY=0.5;entryDx=0;entryDy=0;" edge="1" parent="1" source="5FcoHmArx-ItL01axp11-28" target="5FcoHmArx-ItL01axp11-26">
          <mxGeometry relative="1" as="geometry" />
        </mxCell>
        <mxCell id="5FcoHmArx-ItL01axp11-29" style="edgeStyle=orthogonalEdgeStyle;rounded=0;orthogonalLoop=1;jettySize=auto;html=1;entryX=0;entryY=0.5;entryDx=0;entryDy=0;" edge="1" parent="1" source="5FcoHmArx-ItL01axp11-28" target="5FcoHmArx-ItL01axp11-5">
          <mxGeometry relative="1" as="geometry" />
        </mxCell>
        <mxCell id="5FcoHmArx-ItL01axp11-28" value="Relationship" style="shape=rhombus;perimeter=rhombusPerimeter;whiteSpace=wrap;html=1;align=center;" vertex="1" parent="1">
          <mxGeometry x="220" y="410" width="120" height="60" as="geometry" />
        </mxCell>
        <mxCell id="5FcoHmArx-ItL01axp11-30" value="spdata" style="whiteSpace=wrap;html=1;align=center;" vertex="1" parent="1">
          <mxGeometry x="80" y="540" width="100" height="40" as="geometry" />
        </mxCell>
        <mxCell id="5FcoHmArx-ItL01axp11-31" style="edgeStyle=orthogonalEdgeStyle;rounded=0;orthogonalLoop=1;jettySize=auto;html=1;entryX=1;entryY=0.5;entryDx=0;entryDy=0;" edge="1" parent="1" source="5FcoHmArx-ItL01axp11-32" target="5FcoHmArx-ItL01axp11-30">
          <mxGeometry relative="1" as="geometry" />
        </mxCell>
        <mxCell id="5FcoHmArx-ItL01axp11-33" style="edgeStyle=orthogonalEdgeStyle;rounded=0;orthogonalLoop=1;jettySize=auto;html=1;" edge="1" parent="1" source="5FcoHmArx-ItL01axp11-32" target="5FcoHmArx-ItL01axp11-6">
          <mxGeometry relative="1" as="geometry" />
        </mxCell>
        <mxCell id="5FcoHmArx-ItL01axp11-32" value="Relationship" style="shape=rhombus;perimeter=rhombusPerimeter;whiteSpace=wrap;html=1;align=center;" vertex="1" parent="1">
          <mxGeometry x="220" y="530" width="120" height="60" as="geometry" />
        </mxCell>
        <mxCell id="5FcoHmArx-ItL01axp11-37" style="edgeStyle=orthogonalEdgeStyle;rounded=0;orthogonalLoop=1;jettySize=auto;html=1;entryX=0;entryY=0.5;entryDx=0;entryDy=0;" edge="1" parent="1" source="5FcoHmArx-ItL01axp11-36" target="5FcoHmArx-ItL01axp11-19">
          <mxGeometry relative="1" as="geometry" />
        </mxCell>
        <mxCell id="5FcoHmArx-ItL01axp11-38" style="edgeStyle=orthogonalEdgeStyle;rounded=0;orthogonalLoop=1;jettySize=auto;html=1;entryX=1;entryY=0.5;entryDx=0;entryDy=0;endArrow=none;endFill=0;" edge="1" parent="1" source="5FcoHmArx-ItL01axp11-36" target="5FcoHmArx-ItL01axp11-4">
          <mxGeometry relative="1" as="geometry" />
        </mxCell>
        <mxCell id="5FcoHmArx-ItL01axp11-36" value="Relationship" style="shape=rhombus;perimeter=rhombusPerimeter;whiteSpace=wrap;html=1;align=center;" vertex="1" parent="1">
          <mxGeometry x="550" y="170" width="120" height="60" as="geometry" />
        </mxCell>
        <mxCell id="5FcoHmArx-ItL01axp11-40" style="edgeStyle=orthogonalEdgeStyle;rounded=0;orthogonalLoop=1;jettySize=auto;html=1;entryX=1;entryY=0.5;entryDx=0;entryDy=0;" edge="1" parent="1" source="5FcoHmArx-ItL01axp11-39" target="5FcoHmArx-ItL01axp11-5">
          <mxGeometry relative="1" as="geometry" />
        </mxCell>
        <mxCell id="5FcoHmArx-ItL01axp11-52" style="edgeStyle=orthogonalEdgeStyle;rounded=0;orthogonalLoop=1;jettySize=auto;html=1;entryX=0.5;entryY=1;entryDx=0;entryDy=0;" edge="1" parent="1" source="5FcoHmArx-ItL01axp11-39" target="5FcoHmArx-ItL01axp11-9">
          <mxGeometry relative="1" as="geometry" />
        </mxCell>
        <mxCell id="5FcoHmArx-ItL01axp11-39" value="Relationship" style="shape=rhombus;perimeter=rhombusPerimeter;whiteSpace=wrap;html=1;align=center;" vertex="1" parent="1">
          <mxGeometry x="550" y="410" width="120" height="60" as="geometry" />
        </mxCell>
        <mxCell id="5FcoHmArx-ItL01axp11-43" value="" style="edgeStyle=orthogonalEdgeStyle;rounded=0;orthogonalLoop=1;jettySize=auto;html=1;" edge="1" parent="1" source="5FcoHmArx-ItL01axp11-42" target="5FcoHmArx-ItL01axp11-6">
          <mxGeometry relative="1" as="geometry" />
        </mxCell>
        <mxCell id="5FcoHmArx-ItL01axp11-53" style="edgeStyle=orthogonalEdgeStyle;rounded=0;orthogonalLoop=1;jettySize=auto;html=1;entryX=0.5;entryY=1;entryDx=0;entryDy=0;" edge="1" parent="1" source="5FcoHmArx-ItL01axp11-42" target="5FcoHmArx-ItL01axp11-9">
          <mxGeometry relative="1" as="geometry" />
        </mxCell>
        <mxCell id="5FcoHmArx-ItL01axp11-42" value="Relationship" style="shape=rhombus;perimeter=rhombusPerimeter;whiteSpace=wrap;html=1;align=center;" vertex="1" parent="1">
          <mxGeometry x="560" y="530" width="120" height="60" as="geometry" />
        </mxCell>
        <mxCell id="5FcoHmArx-ItL01axp11-46" style="edgeStyle=orthogonalEdgeStyle;rounded=0;orthogonalLoop=1;jettySize=auto;html=1;" edge="1" parent="1" source="5FcoHmArx-ItL01axp11-45" target="5FcoHmArx-ItL01axp11-10">
          <mxGeometry relative="1" as="geometry" />
        </mxCell>
        <mxCell id="5FcoHmArx-ItL01axp11-47" style="edgeStyle=orthogonalEdgeStyle;rounded=0;orthogonalLoop=1;jettySize=auto;html=1;entryX=1;entryY=0.5;entryDx=0;entryDy=0;endArrow=none;endFill=0;" edge="1" parent="1" source="5FcoHmArx-ItL01axp11-45" target="5FcoHmArx-ItL01axp11-9">
          <mxGeometry relative="1" as="geometry" />
        </mxCell>
        <mxCell id="5FcoHmArx-ItL01axp11-45" value="Relationship" style="shape=rhombus;perimeter=rhombusPerimeter;whiteSpace=wrap;html=1;align=center;" vertex="1" parent="1">
          <mxGeometry x="1050" y="330" width="120" height="60" as="geometry" />
        </mxCell>
        <mxCell id="5FcoHmArx-ItL01axp11-50" style="edgeStyle=orthogonalEdgeStyle;rounded=0;orthogonalLoop=1;jettySize=auto;html=1;entryX=0.5;entryY=1;entryDx=0;entryDy=0;" edge="1" parent="1" source="5FcoHmArx-ItL01axp11-48" target="5FcoHmArx-ItL01axp11-19">
          <mxGeometry relative="1" as="geometry" />
        </mxCell>
        <mxCell id="5FcoHmArx-ItL01axp11-51" style="edgeStyle=orthogonalEdgeStyle;rounded=0;orthogonalLoop=1;jettySize=auto;html=1;entryX=0;entryY=0.5;entryDx=0;entryDy=0;" edge="1" parent="1" source="5FcoHmArx-ItL01axp11-48" target="5FcoHmArx-ItL01axp11-9">
          <mxGeometry relative="1" as="geometry" />
        </mxCell>
        <mxCell id="5FcoHmArx-ItL01axp11-48" value="Relationship" style="shape=rhombus;perimeter=rhombusPerimeter;whiteSpace=wrap;html=1;align=center;" vertex="1" parent="1">
          <mxGeometry x="700" y="270" width="120" height="60" as="geometry" />
        </mxCell>
        <mxCell id="5FcoHmArx-ItL01axp11-55" style="edgeStyle=orthogonalEdgeStyle;rounded=0;orthogonalLoop=1;jettySize=auto;html=1;" edge="1" parent="1" source="5FcoHmArx-ItL01axp11-54" target="5FcoHmArx-ItL01axp11-9">
          <mxGeometry relative="1" as="geometry" />
        </mxCell>
        <mxCell id="5FcoHmArx-ItL01axp11-56" style="edgeStyle=orthogonalEdgeStyle;rounded=0;orthogonalLoop=1;jettySize=auto;html=1;entryX=0.5;entryY=1;entryDx=0;entryDy=0;" edge="1" parent="1" source="5FcoHmArx-ItL01axp11-54" target="5FcoHmArx-ItL01axp11-12">
          <mxGeometry relative="1" as="geometry" />
        </mxCell>
        <mxCell id="5FcoHmArx-ItL01axp11-54" value="Relationship" style="shape=rhombus;perimeter=rhombusPerimeter;whiteSpace=wrap;html=1;align=center;" vertex="1" parent="1">
          <mxGeometry x="900" y="170" width="120" height="60" as="geometry" />
        </mxCell>
        <mxCell id="5FcoHmArx-ItL01axp11-58" style="edgeStyle=orthogonalEdgeStyle;rounded=0;orthogonalLoop=1;jettySize=auto;html=1;endArrow=none;endFill=0;" edge="1" parent="1" source="5FcoHmArx-ItL01axp11-57" target="5FcoHmArx-ItL01axp11-12">
          <mxGeometry relative="1" as="geometry" />
        </mxCell>
        <mxCell id="5FcoHmArx-ItL01axp11-59" style="edgeStyle=orthogonalEdgeStyle;rounded=0;orthogonalLoop=1;jettySize=auto;html=1;entryX=0.5;entryY=1;entryDx=0;entryDy=0;" edge="1" parent="1" source="5FcoHmArx-ItL01axp11-57" target="5FcoHmArx-ItL01axp11-11">
          <mxGeometry relative="1" as="geometry" />
        </mxCell>
        <mxCell id="5FcoHmArx-ItL01axp11-57" value="Relationship" style="shape=rhombus;perimeter=rhombusPerimeter;whiteSpace=wrap;html=1;align=center;" vertex="1" parent="1">
          <mxGeometry x="990" y="-30" width="120" height="60" as="geometry" />
        </mxCell>
        <mxCell id="5FcoHmArx-ItL01axp11-61" style="edgeStyle=orthogonalEdgeStyle;rounded=0;orthogonalLoop=1;jettySize=auto;html=1;entryX=0;entryY=0.5;entryDx=0;entryDy=0;" edge="1" parent="1" source="5FcoHmArx-ItL01axp11-60" target="5FcoHmArx-ItL01axp11-16">
          <mxGeometry relative="1" as="geometry" />
        </mxCell>
        <mxCell id="5FcoHmArx-ItL01axp11-62" style="edgeStyle=orthogonalEdgeStyle;rounded=0;orthogonalLoop=1;jettySize=auto;html=1;entryX=1;entryY=0.5;entryDx=0;entryDy=0;endArrow=none;endFill=0;" edge="1" parent="1" source="5FcoHmArx-ItL01axp11-60" target="5FcoHmArx-ItL01axp11-15">
          <mxGeometry relative="1" as="geometry" />
        </mxCell>
        <mxCell id="5FcoHmArx-ItL01axp11-60" value="Relationship" style="shape=rhombus;perimeter=rhombusPerimeter;whiteSpace=wrap;html=1;align=center;" vertex="1" parent="1">
          <mxGeometry x="10" y="660" width="120" height="60" as="geometry" />
        </mxCell>
        <mxCell id="5FcoHmArx-ItL01axp11-64" style="edgeStyle=orthogonalEdgeStyle;rounded=0;orthogonalLoop=1;jettySize=auto;html=1;entryX=1;entryY=0.5;entryDx=0;entryDy=0;" edge="1" parent="1" source="5FcoHmArx-ItL01axp11-63" target="5FcoHmArx-ItL01axp11-18">
          <mxGeometry relative="1" as="geometry" />
        </mxCell>
        <mxCell id="5FcoHmArx-ItL01axp11-65" style="edgeStyle=orthogonalEdgeStyle;rounded=0;orthogonalLoop=1;jettySize=auto;html=1;entryX=0;entryY=0.5;entryDx=0;entryDy=0;endArrow=none;endFill=0;" edge="1" parent="1" source="5FcoHmArx-ItL01axp11-63" target="5FcoHmArx-ItL01axp11-14">
          <mxGeometry relative="1" as="geometry" />
        </mxCell>
        <mxCell id="5FcoHmArx-ItL01axp11-66" style="edgeStyle=orthogonalEdgeStyle;rounded=0;orthogonalLoop=1;jettySize=auto;html=1;entryX=0;entryY=0.5;entryDx=0;entryDy=0;endArrow=none;endFill=0;" edge="1" parent="1" source="5FcoHmArx-ItL01axp11-63" target="5FcoHmArx-ItL01axp11-13">
          <mxGeometry relative="1" as="geometry" />
        </mxCell>
        <mxCell id="5FcoHmArx-ItL01axp11-63" value="Relationship" style="shape=rhombus;perimeter=rhombusPerimeter;whiteSpace=wrap;html=1;align=center;" vertex="1" parent="1">
          <mxGeometry x="250" y="990" width="120" height="60" as="geometry" />
        </mxCell>
        <mxCell id="5FcoHmArx-ItL01axp11-67" value="rule" style="whiteSpace=wrap;html=1;align=center;" vertex="1" parent="1">
          <mxGeometry x="-170" y="790" width="100" height="40" as="geometry" />
        </mxCell>
        <mxCell id="5FcoHmArx-ItL01axp11-73" style="edgeStyle=orthogonalEdgeStyle;rounded=0;orthogonalLoop=1;jettySize=auto;html=1;" edge="1" parent="1" source="5FcoHmArx-ItL01axp11-68" target="5FcoHmArx-ItL01axp11-67">
          <mxGeometry relative="1" as="geometry" />
        </mxCell>
        <mxCell id="5FcoHmArx-ItL01axp11-75" style="edgeStyle=orthogonalEdgeStyle;rounded=0;orthogonalLoop=1;jettySize=auto;html=1;entryX=0.5;entryY=1;entryDx=0;entryDy=0;" edge="1" parent="1" source="5FcoHmArx-ItL01axp11-68" target="5FcoHmArx-ItL01axp11-16">
          <mxGeometry relative="1" as="geometry" />
        </mxCell>
        <mxCell id="5FcoHmArx-ItL01axp11-68" value="Relationship" style="shape=rhombus;perimeter=rhombusPerimeter;whiteSpace=wrap;html=1;align=center;" vertex="1" parent="1">
          <mxGeometry x="24" y="780" width="120" height="60" as="geometry" />
        </mxCell>
      </root>
    </mxGraphModel>
  </diagram>
</mxfile>
